<svg data-bbox="252.1 373.5 108.8 45" viewBox="252.1 373.5 108.8 45" xmlns="http://www.w3.org/2000/svg" data-type="color" aria-hidden="true" aria-labelledby="svgcid--tun6z2d80wtn"><g fill="#fff"><path d="M252.1 385.5c0-1.6.3-3.2.9-4.7.6-1.5 1.5-2.7 2.6-3.8 1.1-1.1 2.4-1.9 3.8-2.6 1.4-.6 3-.9 4.7-.9 1.6 0 3.2.3 4.7.9 1.5.6 2.7 1.5 3.8 2.6 1.1 1.1 1.9 2.4 2.6 3.8.6 1.5 1 3 1 4.7v4.8c0 .7-.2 1.3-.7 1.8-.5.5-1.1.7-1.8.7h-16.5v2.3c0 .9.2 1.8.6 2.7.4.8.9 1.6 1.5 2.2.6.6 1.4 1.1 2.2 1.5.9.4 1.8.5 2.7.5 1.4 0 2.7-.4 3.8-1.1 1.1-.7 2-1.7 2.6-3l.1-.2c.2-.5.5-.9.9-1.2.4-.3.9-.4 1.4-.4.7 0 1.3.3 1.8.8s.7 1.1.7 1.8c0 .3-.1.6-.2.9l-.1.3c-.9 2.1-2.4 3.9-4.3 5.2-2 1.3-4.2 2-6.6 2-1.6 0-3.2-.3-4.7-.9-1.5-.6-2.7-1.5-3.8-2.6-1.1-1.1-2-2.4-2.6-3.8-.6-1.5-1-3-1-4.7v-9.6zm5 2.3h14v-2.3c0-.9-.2-1.8-.6-2.7-.4-.8-.9-1.6-1.5-2.2-.6-.6-1.4-1.1-2.2-1.5-.9-.4-1.8-.5-2.7-.5-1 0-1.9.2-2.7.5-.8.4-1.6.9-2.2 1.5-.6.6-1.1 1.4-1.5 2.2-.4.8-.5 1.7-.5 2.7v2.3zM278 385.5c0-1.6.3-3.2.9-4.7.6-1.5 1.5-2.7 2.6-3.8 1.1-1.1 2.4-1.9 3.8-2.6 1.4-.6 3-.9 4.7-.9 1.6 0 3.2.3 4.7.9 1.5.6 2.7 1.5 3.8 2.6 1.1 1.1 1.9 2.4 2.6 3.8.6 1.5 1 3 1 4.7v21c0 1.6-.3 3.2-1 4.7-.6 1.5-1.5 2.7-2.6 3.8-1.1 1.1-2.4 1.9-3.8 2.6-1.5.6-3 .9-4.7.9-.7 0-1.3-.2-1.8-.7-.5-.5-.7-1.1-.7-1.8s.2-1.3.7-1.8c.5-.5 1.1-.7 1.8-.7.9 0 1.8-.2 2.7-.5.9-.4 1.6-.9 2.2-1.5.6-.6 1.1-1.4 1.5-2.2.4-.8.6-1.7.6-2.7v-1.7c-2.1 1.5-4.4 2.2-7 2.2-1.6 0-3.2-.3-4.7-.9-1.5-.6-2.7-1.5-3.8-2.6-1.1-1.1-2-2.4-2.6-3.8-.6-1.5-1-3-1-4.7v-9.6zm5 9.6c0 .9.2 1.8.6 2.7.4.8.9 1.6 1.5 2.2.6.6 1.4 1.1 2.2 1.5.9.4 1.8.5 2.7.5s1.8-.2 2.7-.5c.8-.3 1.6-.8 2.2-1.4.6-.6 1.1-1.3 1.5-2.1.4-.8.6-1.7.6-2.6v-9.9c0-.9-.2-1.8-.6-2.7-.4-.8-.9-1.6-1.5-2.2-.6-.6-1.4-1.1-2.2-1.5-.9-.4-1.8-.5-2.7-.5-1 0-1.9.2-2.7.5-.8.4-1.6.9-2.2 1.5-.6.6-1.1 1.4-1.5 2.2-.4.8-.5 1.7-.5 2.7v9.6zM304.1 385.5c0-1.6.3-3.2.9-4.7.6-1.5 1.5-2.7 2.6-3.8 1.1-1.1 2.4-1.9 3.8-2.6 1.4-.6 3-.9 4.7-.9 1.6 0 3.2.3 4.7.9 1.5.6 2.7 1.5 3.8 2.6 1.1 1.1 1.9 2.4 2.6 3.8.6 1.5 1 3 1 4.7v4.8c0 .7-.2 1.3-.7 1.8-.5.5-1.1.7-1.8.7h-16.5v2.3c0 .9.2 1.8.6 2.7.4.8.9 1.6 1.5 2.2.6.6 1.4 1.1 2.2 1.5.9.4 1.8.5 2.7.5 1.4 0 2.7-.4 3.8-1.1 1.1-.7 2-1.7 2.6-3l.1-.2c.2-.5.5-.9.9-1.2.4-.3.9-.4 1.4-.4.7 0 1.3.3 1.8.8s.7 1.1.7 1.8c0 .3-.1.6-.2.9l-.1.3c-.9 2.1-2.4 3.9-4.3 5.2-2 1.3-4.2 2-6.6 2-1.6 0-3.2-.3-4.7-.9-1.5-.6-2.7-1.5-3.8-2.6-1.1-1.1-2-2.4-2.6-3.8-.6-1.5-1-3-1-4.7v-9.6zm5.1 2.3h14v-2.3c0-.9-.2-1.8-.6-2.7-.4-.8-.9-1.6-1.5-2.2-.6-.6-1.4-1.1-2.2-1.5-.9-.4-1.8-.5-2.7-.5-1 0-1.9.2-2.7.5-.8.4-1.6.9-2.2 1.5-.6.6-1.1 1.4-1.5 2.2-.4.8-.5 1.7-.5 2.7v2.3zM330 385.5c0-1.6.3-3.2.9-4.7.6-1.5 1.5-2.7 2.6-3.8 1.1-1.1 2.4-1.9 3.8-2.6 1.4-.6 3-.9 4.7-.9 1.6 0 3.2.3 4.7.9 1.5.6 2.7 1.5 3.8 2.6 1.1 1.1 1.9 2.4 2.6 3.8.6 1.5 1 3 1 4.7v18.7c0 .7-.3 1.3-.8 1.8s-1.1.7-1.8.7c-.6 0-1.2-.2-1.6-.6-.5-.4-.7-.9-.8-1.4-2 1.5-4.4 2.3-7 2.3-1.6 0-3.2-.3-4.7-.9-1.5-.6-2.7-1.5-3.8-2.6-1.1-1.1-2-2.4-2.6-3.8-.6-1.5-1-3-1-4.7v-9.5zm5.1 9.6c0 .9.2 1.8.6 2.7.4.8.9 1.6 1.5 2.2.6.6 1.4 1.1 2.2 1.5.9.4 1.8.5 2.7.5.9 0 1.8-.2 2.7-.5.8-.3 1.6-.8 2.2-1.4.6-.6 1.1-1.3 1.5-2.1.4-.8.6-1.7.6-2.6v-9.9c0-.9-.2-1.8-.6-2.7-.4-.8-.9-1.6-1.5-2.2-.6-.6-1.4-1.1-2.2-1.5-.9-.4-1.8-.5-2.7-.5-1 0-1.9.2-2.7.5-.8.4-1.6.9-2.2 1.5-.6.6-1.1 1.4-1.5 2.2-.4.8-.5 1.7-.5 2.7v9.6zM304.3 408.1c0-.2.1-.3.2-.4.1-.1.3-.2.4-.2.2 0 .3.1.4.2.1.1.2.3.2.4v9.2c0 .2-.1.3-.2.4-.1.1-.3.2-.4.2-.2 0-.3-.1-.4-.2-.1-.1-.2-.3-.2-.4v-9.2zM306.5 412.9c0-.4.1-.8.2-1.1.1-.3.4-.6.6-.9.3-.3.6-.5.9-.6.3-.1.7-.2 1.1-.2.4 0 .8.1 1.1.2.3.1.6.3.9.6.3.3.5.6.6.9.2.3.2.7.2 1.1v4.4c0 .2-.1.3-.2.4-.1.1-.3.2-.4.2-.2 0-.3-.1-.4-.2-.1-.1-.2-.3-.2-.4v-4.4c0-.2 0-.4-.1-.6-.1-.2-.2-.4-.4-.5-.1-.2-.3-.3-.5-.4-.2-.1-.4-.1-.6-.1-.2 0-.4 0-.6.1-.2.1-.4.2-.5.4-.2.2-.3.3-.4.5-.1.2-.1.4-.1.6v4.4c0 .2-.1.3-.2.4-.1.1-.3.2-.4.2-.2 0-.3-.1-.4-.2-.1-.1-.2-.3-.2-.4v-4.4zM313.4 412.9c0-.4.1-.8.2-1.1.1-.3.4-.6.6-.9.3-.3.6-.5.9-.6.3-.1.7-.2 1.1-.2.4 0 .8.1 1.1.2.3.1.6.3.9.6.3.3.5.6.6.9.2.3.2.7.2 1.1v4.4c0 .2-.1.3-.2.4-.1.1-.3.2-.4.2-.2 0-.3-.1-.4-.2-.1-.1-.2-.3-.2-.4v-4.4c0-.2 0-.4-.1-.6-.1-.2-.2-.4-.4-.5-.1-.2-.3-.3-.5-.4-.2-.1-.4-.1-.6-.1-.2 0-.4 0-.6.1-.2.1-.4.2-.5.4-.2.2-.3.3-.4.5-.1.2-.1.4-.1.6v4.4c0 .2-.1.3-.2.4-.1.1-.3.2-.4.2-.2 0-.3-.1-.4-.2-.1-.1-.2-.3-.2-.4v-4.4zM320.2 412.9c0-.4.1-.8.2-1.1.1-.3.4-.6.6-.9.3-.3.6-.5.9-.6.3-.1.7-.2 1.1-.2.4 0 .8.1 1.1.2.3.1.6.3.9.6.3.3.5.6.6.9.2.3.2.7.2 1.1v2.3c0 .4-.1.8-.2 1.1-.1.3-.4.6-.6.9-.3.3-.6.5-.9.6-.3.1-.7.2-1.1.2-.4 0-.8-.1-1.1-.2-.3-.1-.6-.3-.9-.6-.3-.3-.5-.6-.6-.9-.2-.3-.2-.7-.2-1.1v-2.3zm1.2 2.2c0 .2 0 .4.1.6.1.2.2.4.4.5.1.2.3.3.5.4.2.1.4.1.6.1.2 0 .4 0 .6-.1.2-.1.4-.2.5-.4.2-.2.3-.3.4-.5.1-.2.1-.4.1-.6v-2.3c0-.2 0-.4-.1-.6-.1-.2-.2-.4-.4-.5-.1-.2-.3-.3-.5-.4-.2-.1-.4-.1-.6-.1-.2 0-.4 0-.6.1-.2.1-.4.2-.5.4-.2.2-.3.3-.4.5-.1.2-.1.4-.1.6v2.3zM326.2 410.9v-.2c0-.1.1-.3.2-.4.1-.1.2-.2.4-.2.1 0 .2 0 .3.1.1.1.2.2.2.3l2.3 5.4 2.3-5.4c.1-.2.3-.4.6-.4.2 0 .3.1.4.2.1.1.2.3.2.4v.2l-2.9 6.7c-.1.2-.3.4-.6.4s-.5-.1-.6-.4l-2.8-6.7zM333.3 412.9c0-.4.1-.8.2-1.1.1-.3.4-.6.6-.9.3-.3.6-.5.9-.6.3-.1.7-.2 1.1-.2.4 0 .8.1 1.1.2.3.1.6.3.9.6.3.3.5.6.6.9.2.3.2.7.2 1.1v4.4c0 .2-.1.3-.2.4-.1.1-.3.2-.4.2-.1 0-.3 0-.4-.1-.1-.1-.2-.2-.2-.3-.5.4-1 .5-1.7.5-.4 0-.8-.1-1.1-.2-.3-.1-.6-.3-.9-.6-.3-.3-.5-.6-.6-.9-.2-.3-.2-.7-.2-1.1v-2.3zm1.2 2.2c0 .2 0 .4.1.6.1.2.2.4.4.5.1.2.3.3.5.4.2.1.4.1.6.1.2 0 .4 0 .6-.1.2-.1.4-.2.5-.3.1-.1.3-.3.4-.5.1-.2.1-.4.1-.6v-2.3c0-.2 0-.4-.1-.6-.1-.2-.2-.4-.4-.5-.1-.2-.3-.3-.5-.4-.2-.1-.4-.1-.6-.1-.2 0-.4 0-.6.1-.2.1-.4.2-.5.4-.2.2-.3.3-.4.5-.1.2-.1.4-.1.6v2.2zM340.1 408.1c0-.2.1-.3.2-.4.1-.1.3-.2.4-.2.2 0 .3.1.4.2.1.1.2.3.2.4v2h3c.2 0 .3.1.4.2.1.1.2.3.2.4 0 .2-.1.3-.2.4-.1.1-.3.2-.4.2h-3v3.8c0 .2 0 .4.1.6.1.2.2.4.4.5.1.2.3.3.5.4.2.1.4.1.6.1.3 0 .6-.1.9-.3.3-.2.5-.4.6-.7.1-.1.1-.2.2-.3.1-.1.2-.1.3-.1.2 0 .3.1.4.2.1.1.2.3.2.4v.2c-.2.5-.5.8-.8 1.1-.3.2-.6.4-.9.5-.3.1-.5.2-.7.2h-.3c-.4 0-.8-.1-1.1-.2-.3-.1-.6-.3-.9-.6-.3-.3-.5-.6-.6-.9-.2-.3-.2-.7-.2-1.1v-7zM346.3 407.9c0-.2.1-.3.2-.4s.3-.2.4-.2c.2 0 .3.1.4.2.1.1.2.3.2.4v.5c0 .2-.1.3-.2.4-.1.1-.3.2-.4.2-.2 0-.3-.1-.4-.2-.1-.1-.2-.3-.2-.4v-.5zm0 2.8c0-.2.1-.3.2-.4s.3-.2.4-.2c.2 0 .3.1.4.2.1.1.2.3.2.4v6.6c0 .2-.1.3-.2.4-.1.1-.3.2-.4.2-.2 0-.3-.1-.4-.2-.1-.1-.2-.3-.2-.4v-6.6zM348.5 412.9c0-.4.1-.8.2-1.1.1-.3.4-.6.6-.9.3-.3.6-.5.9-.6.3-.1.7-.2 1.1-.2.4 0 .8.1 1.1.2.3.1.6.3.9.6.3.3.5.6.6.9.2.3.2.7.2 1.1v2.3c0 .4-.1.8-.2 1.1-.1.3-.4.6-.6.9-.3.3-.6.5-.9.6-.3.1-.7.2-1.1.2-.4 0-.8-.1-1.1-.2-.3-.1-.6-.3-.9-.6-.3-.3-.5-.6-.6-.9-.2-.3-.2-.7-.2-1.1v-2.3zm1.1 2.2c0 .2 0 .4.1.6.1.2.2.4.4.5.1.2.3.3.5.4.2.1.4.1.6.1.2 0 .4 0 .6-.1.2-.1.4-.2.5-.4s.3-.3.4-.5c.1-.2.1-.4.1-.6v-2.3c0-.2 0-.4-.1-.6-.1-.2-.2-.4-.4-.5-.1-.2-.3-.3-.5-.4-.2-.1-.4-.1-.6-.1-.2 0-.4 0-.6.1-.2.1-.4.2-.5.4-.2.2-.3.3-.4.5-.1.2-.1.4-.1.6v2.3zM355.3 412.9c0-.4.1-.8.2-1.1.1-.3.4-.6.6-.9.3-.3.6-.5.9-.6.3-.1.7-.2 1.1-.2.4 0 .8.1 1.1.2.3.1.6.3.9.6.3.3.5.6.6.9.2.3.2.7.2 1.1v4.4c0 .2-.1.3-.2.4-.1.1-.3.2-.4.2-.2 0-.3-.1-.4-.2-.1-.1-.2-.3-.2-.4v-4.4c0-.2 0-.4-.1-.6-.1-.2-.2-.4-.4-.5-.1-.2-.3-.3-.5-.4-.2-.1-.4-.1-.6-.1-.2 0-.4 0-.6.1-.2.1-.4.2-.5.4-.2.2-.3.3-.4.5-.1.2-.1.4-.1.6v4.4c0 .2-.1.3-.2.4-.1.1-.3.2-.4.2-.2 0-.3-.1-.4-.2-.1-.1-.2-.3-.2-.4v-4.4z" data-color="1"/></g></svg>